<svg width="90" height="33" viewBox="0 0 90 33" fill="none" xmlns="http://www.w3.org/2000/svg">
<rect width="90" height="33" fill="#6C6C6C"/>
<path d="M-445 -307C-445 -340.137 -418.137 -367 -385 -367H2477C2510.14 -367 2537 -340.137 2537 -307V4733C2537 4766.14 2510.14 4793 2477 4793H-385C-418.137 4793 -445 4766.14 -445 4733V-307Z" fill="#1D141D"/>
<path d="M-385 -366H2477V-368H-385V-366ZM2536 -307V4733H2538V-307H2536ZM2477 4792H-385V4794H2477V4792ZM-444 4733V-307H-446V4733H-444ZM-385 4792C-417.585 4792 -444 4765.58 -444 4733H-446C-446 4766.69 -418.689 4794 -385 4794V4792ZM2536 4733C2536 4765.58 2509.58 4792 2477 4792V4794C2510.69 4794 2538 4766.69 2538 4733H2536ZM2477 -366C2509.58 -366 2536 -339.585 2536 -307H2538C2538 -340.689 2510.69 -368 2477 -368V-366ZM-385 -368C-418.689 -368 -446 -340.689 -446 -307H-444C-444 -339.585 -417.585 -366 -385 -366V-368Z" fill="white" fill-opacity="0.1"/>
<rect width="360" height="800" transform="translate(-54.3701 -16.5996)" fill="#042940"/>
<rect x="-54.5368" y="-16.7663" width="360.333" height="67.3333" stroke="#8F8F8F" stroke-width="0.333333"/>
<g clip-path="url(#clip0_863_67)">
<path d="M14.6169 11.0519L13.7055 8.26979L12.0363 3.16933L11.2941 0.900393L10.569 3.12064L8.90921 8.19174L8.02448 10.8965L2.0874 5.80457L4.67112 12.4375H18.0595L20.6001 5.92358L14.6169 11.0519ZM10.0695 9.18324L11.3121 5.38648L12.575 9.24197L11.3536 10.2883L10.0695 9.18324Z" fill="#9FC131"/>
<path d="M16.1881 13.7134H6.53675C5.52016 13.7134 4.69604 14.5268 4.69604 15.5302C4.69604 16.5336 5.52016 17.3471 6.53675 17.3471H16.1881C17.2047 17.3471 18.0288 16.5336 18.0288 15.5302C18.0288 14.5268 17.2047 13.7134 16.1881 13.7134Z" stroke="#9FC131" stroke-width="1.05862" stroke-miterlimit="10"/>
<path d="M12.3385 14.0039H10.3467L9.35156 15.5302L10.3467 17.0565H12.3385L13.3336 15.5302L12.3385 14.0039Z" fill="#9FC131"/>
<path d="M17.9992 18.572L17.9702 18.5812V18.572H4.68911L0.517578 30.6616L4.63274 29.4576L7.17731 32.9004L11.3441 20.8262L15.5102 32.9004L18.0556 29.4576L22.1707 30.6616L17.9992 18.572Z" fill="#9FC131"/>
<path d="M35.7767 8.17242H36.533V17.8478H34.4363V12.6245L31.9786 15.6608H31.7132L29.2555 12.6284V17.8478H27.1611V8.17242H27.9292L31.8533 12.7621L35.7767 8.17242Z" fill="#9FC131"/>
<path d="M44.3781 17.4383C43.61 17.8656 42.8286 17.9483 41.9768 17.99C39.617 18.0588 38.0386 16.9282 38.0386 14.5024C38.0386 12.2427 39.6828 11.0712 41.46 11.0295C42.9821 10.9885 44.6294 11.5944 44.5918 13.3177C44.5214 14.6817 43.2929 15.3162 42.0645 15.3571C41.2964 15.3989 40.4986 15.2605 39.8996 14.9298C39.9419 16.0743 40.8775 16.5016 42.106 16.4599C42.8684 16.4356 43.6183 16.2623 44.3123 15.9499L44.3781 17.4383ZM41.6691 14.048C42.2281 14.0341 42.6869 13.8162 42.7026 13.3177C42.7026 12.7111 42.0183 12.5179 41.4875 12.5179C40.8032 12.5596 40.2167 12.8764 40.0077 13.7033C40.2911 13.8788 41.0545 14.0851 41.6691 14.0441V14.048Z" fill="#9FC131"/>
<path d="M45.537 11.1786C46.5149 10.9174 48.1622 10.8757 48.1622 12.2404C48.4973 11.4135 49.3492 11.055 50.2566 11.055C51.4162 11.055 52.0026 11.4823 52.3236 12.2953C52.7566 11.4267 53.6781 11.055 54.6278 11.055C56.5264 11.055 56.9594 12.3502 56.9171 13.9916V15.8107C56.9171 16.4166 56.9876 16.7203 57.7001 16.6786V17.7953C56.2477 18.167 54.9598 17.9499 54.9598 16.2497V13.9893C55.0013 13.1067 54.5409 12.5828 53.8699 12.5828C53.1864 12.5828 52.6415 13.1237 52.6274 14.0024V17.8478H50.7319V14.0024C50.7319 13.1067 50.2566 12.5828 49.5449 12.5828C48.8324 12.5967 48.246 13.1067 48.246 14.0441V17.8478H46.2886V13.2721C46.2886 12.5557 46.2331 12.252 45.5347 12.2937L45.537 11.1786Z" fill="#9FC131"/>
<path d="M62.1252 17.9993C60.3386 17.9993 58.5652 16.8285 58.5652 14.4985C58.5652 12.1801 60.3386 11.0117 62.1252 11.0117C63.9119 11.0117 65.7002 12.1832 65.7002 14.5016C65.7002 16.8285 63.9127 17.9993 62.1252 17.9993ZM62.1393 16.3046C62.9638 16.3046 63.7592 15.6979 63.7592 14.4985C63.7592 13.3138 62.9497 12.7072 62.1393 12.7072C61.3157 12.7072 60.5061 13.2999 60.5061 14.4985C60.5061 15.7118 61.3157 16.3046 62.1393 16.3046Z" fill="#9FC131"/>
<path d="M71.0899 10.9985C71.6038 10.9807 72.1094 11.1307 72.5282 11.4251L72.0952 13.038C71.7251 12.7906 71.2853 12.6651 70.8386 12.6794C69.9868 12.6794 69.261 13.2312 69.261 14.2505V17.8478H67.3474V13.1624C67.3474 12.6106 67.2919 12.252 66.6772 12.3486V11.1639C67.6551 10.9429 69.0934 10.9429 69.2046 12.1284C69.4841 11.3703 70.2663 10.9985 71.0899 10.9985Z" fill="#9FC131"/>
<path d="M75.6976 9.28911C75.6976 10.7775 73.4075 10.7775 73.4075 9.28911C73.4098 7.81461 75.6976 7.81461 75.6976 9.28911ZM75.53 17.8478H73.5727V11.2876H75.53V17.8478Z" fill="#9FC131"/>
<path d="M83.7266 15.7118C83.7266 16.2767 83.6985 16.5805 84.3687 16.5387V17.7752C83.4612 17.9684 82.149 18.0372 82.149 16.6724C81.7716 17.4993 80.9057 17.9545 80.0124 17.9545C77.9321 17.9128 76.9683 16.3316 76.9683 14.4398C77.0379 12.1933 78.5882 11.0078 80.8642 11.0495C81.8496 11.0729 82.8214 11.2828 83.7266 11.6678V15.7118ZM81.8272 12.7899C81.4709 12.6559 81.092 12.5904 80.7107 12.5967C79.6491 12.5967 78.9648 13.1755 78.9233 14.4437C78.9233 15.4916 79.4259 16.2628 80.4312 16.2489C81.3708 16.2489 81.7857 15.5186 81.8272 14.5124V12.7899Z" fill="#9FC131"/>
<path d="M87.6226 7.75897V15.3262C87.6226 16.3455 88.0274 16.5526 88.963 16.4012L89.0327 17.8478C86.9524 18.2203 85.6958 17.7103 85.6958 15.3262V7.75897H87.6226Z" fill="#9FC131"/>
<path d="M31.7272 21.7203H28.6252V23.286H31.5291V24.7304H28.6252V26.4939H31.8196V27.9939H26.9348V20.276H31.7272V21.7203Z" fill="white"/>
<path d="M35.8825 22.514C36.2937 22.5004 36.6981 22.6204 37.0335 22.8556L36.6898 24.1461C36.3937 23.9476 36.0414 23.8472 35.6837 23.8594C35.0025 23.8594 34.4216 24.2999 34.4216 25.116V27.9939H32.8893V24.2451C32.8893 23.8038 32.8447 23.5171 32.353 23.5944V22.6461C33.136 22.4699 34.2853 22.4699 34.3746 23.4189C34.5985 22.8115 35.2241 22.514 35.8825 22.514Z" fill="white"/>
<path d="M37.0225 22.657C37.8054 22.4475 39.1223 22.4151 39.1223 23.507C39.3901 22.8455 40.072 22.5588 40.7978 22.5588C41.7248 22.5588 42.1938 22.9004 42.4506 23.5511C42.7975 22.8556 43.5342 22.5588 44.2937 22.5588C45.8134 22.5588 46.1594 23.5951 46.1258 24.9073V26.3625C46.1258 26.8478 46.1821 27.0905 46.7521 27.058V27.9483C45.5902 28.2458 44.5599 28.0696 44.5599 26.7118V24.9035C44.5935 24.1979 44.2248 23.7791 43.6885 23.7791C43.1521 23.7791 42.7059 24.2087 42.6941 24.9143V27.9908H41.1752V24.9174C41.1752 24.201 40.7955 23.7822 40.2255 23.7822C39.6555 23.7822 39.1865 24.201 39.1865 24.9506V27.9939H37.6292V24.3332C37.6292 23.7597 37.5846 23.5171 37.0264 23.5503L37.0225 22.657Z" fill="white"/>
<path d="M49.0303 21.1477C49.0303 22.3386 47.1982 22.3386 47.1982 21.1477C47.1982 19.9568 49.0303 19.9669 49.0303 21.1477ZM48.8964 27.9947H47.3306V22.7458H48.8964V27.9947Z" fill="white"/>
<path d="M53.0962 22.514C53.5074 22.5004 53.9117 22.6204 54.2471 22.8556L53.901 24.1461C53.6055 23.9479 53.2537 23.8475 52.8965 23.8594C52.2154 23.8594 51.6344 24.2999 51.6344 25.116V27.9939H50.103V24.2451C50.103 23.8038 50.0583 23.5171 49.5667 23.5944V22.6461C50.3496 22.4699 51.499 22.4699 51.5882 23.4189C51.8121 22.8115 52.4369 22.514 53.0962 22.514Z" fill="white"/>
<path d="M61.8097 23.9916C62.5355 24.2891 62.927 24.9189 62.927 25.7111C62.927 27.0673 62.011 27.9939 60.4466 27.9939H56.8169V20.2868H60.1342C61.5639 20.2868 62.5919 21.1245 62.5919 22.5689C62.5932 22.8518 62.5222 23.1305 62.3855 23.3791C62.2488 23.6278 62.0507 23.8384 61.8097 23.9916ZM58.4807 21.6979V23.4514H60.0113C60.5805 23.4514 60.9383 23.1423 60.9508 22.6245C60.9626 22.0619 60.5938 21.6971 60.0113 21.6971L58.4807 21.6979ZM58.4807 24.7961V26.5573H60.3347C60.9039 26.5573 61.239 26.2265 61.2742 25.7072C61.2846 25.5621 61.2584 25.4167 61.1981 25.284C61.1377 25.1513 61.0449 25.0355 60.9281 24.9468C60.7379 24.8146 60.5147 24.7922 60.2579 24.7922L58.4807 24.7961Z" fill="white"/>
<path d="M68.8021 22.6794V26.395C68.8021 26.8911 68.8248 27.0673 69.3047 27.0341L69.3165 27.9939C68.5562 28.1701 67.3505 28.2474 67.3505 27.2211C67.0483 27.8393 66.3006 28.0712 65.628 28.0712C64.0754 28.0712 63.6292 27.0457 63.6292 25.7227V22.6794H65.2037V25.7227C65.1708 26.4723 65.5834 26.8579 66.1314 26.8579C66.7578 26.8687 67.237 26.4058 67.237 25.6894V22.6794H68.8021Z" fill="white"/>
<path d="M71.5393 22.7018L71.5307 28.6222C71.5307 30.5627 70.5129 31.0696 68.8608 30.7721L68.9055 29.6253C69.7988 29.7466 70.0016 29.4383 70.0016 28.5998V22.7018H71.5393ZM71.6732 21.1477C71.6732 22.3386 69.8411 22.3386 69.8411 21.1477C69.8411 19.9568 71.6732 19.9669 71.6732 21.1477Z" fill="white"/>
<path d="M77.6494 26.2845C77.6494 26.7366 77.6275 26.98 78.163 26.946V27.9383C77.4372 28.0928 76.3873 28.1477 76.3873 27.0565C76.0859 27.718 75.393 28.082 74.6781 28.082C73.0136 28.0488 72.2432 26.7806 72.2432 25.2706C72.2988 23.473 73.5389 22.5248 75.3593 22.558C76.1478 22.577 76.9253 22.7455 77.6494 23.0542V26.2845ZM76.1305 23.9475C75.8451 23.8403 75.5417 23.7878 75.2364 23.793C74.3877 23.793 73.8404 24.2567 73.8067 25.2706C73.8067 26.1083 74.2091 26.7257 75.0132 26.7149C75.7617 26.7149 76.0968 26.1307 76.1305 25.3239V23.9475Z" fill="white"/>
<path d="M80.0516 26.3726C80.0625 26.8138 80.4869 27.0125 80.934 27.0016C81.381 26.9908 81.85 26.8687 81.861 26.395C81.861 25.9653 81.4695 25.9205 81.0906 25.8656C80.007 25.7227 78.5992 25.5789 78.5992 24.2891C78.5992 23.0982 79.5936 22.5364 80.9113 22.5364C82.1961 22.5364 83.3016 23.1091 83.246 24.2366H81.7717C81.7608 23.8502 81.3802 23.6956 80.934 23.6956C80.4877 23.6956 80.1072 23.8934 80.1072 24.2466C80.1072 24.6438 80.5315 24.6987 80.8776 24.7319C82.0841 24.8749 83.4613 24.9746 83.4245 26.3965C83.3916 27.6647 82.2188 28.1384 80.9974 28.1384C79.776 28.1384 78.5405 27.786 78.4841 26.3741L80.0516 26.3726Z" fill="white"/>
<path d="M85.6479 28.0047H84.082V19.9344H85.6479V23.3958C86.0832 22.7458 86.7307 22.5457 87.4127 22.5805C88.6192 22.6353 89.1665 23.2968 89.334 24.2999C89.3656 24.5524 89.3805 24.8067 89.3786 25.0611V26.48C89.3786 26.9545 89.4569 27.0642 89.9815 27.031V27.9584C88.6857 28.2226 87.8143 27.9584 87.8143 26.558V25.5457C87.8217 25.2442 87.8107 24.9425 87.7814 24.6423C87.6914 24.0797 87.4573 23.7822 86.7981 23.7822C86.1952 23.7822 85.6479 24.201 85.6479 24.9506V28.0047Z" fill="white"/>
</g>
<defs>
<clipPath id="clip0_863_67">
<rect width="92" height="32" fill="white" transform="translate(0.517578 0.900391)"/>
</clipPath>
</defs>
</svg>
