<svg width="120" height="119" viewBox="0 0 120 119" fill="none" xmlns="http://www.w3.org/2000/svg">
<g id="lets-icons:date-fill">
<g id="Group">
<path id="Vector" d="M10.3779 44.6253C10.3779 35.2739 10.3779 30.6032 13.2835 27.6976C16.189 24.792 20.8598 24.792 30.2112 24.792H89.7112C99.0626 24.792 103.733 24.792 106.639 27.6976C109.545 30.6032 109.545 35.2739 109.545 44.6253C109.545 46.9607 109.545 48.1309 108.821 48.8597C108.092 49.5837 106.917 49.5837 104.586 49.5837H15.3362C13.0008 49.5837 11.8307 49.5837 11.1018 48.8597C10.3779 48.1309 10.3779 46.9557 10.3779 44.6253ZM10.3779 89.2503C10.3779 98.6017 10.3779 103.272 13.2835 106.178C16.189 109.084 20.8598 109.084 30.2112 109.084H89.7112C99.0626 109.084 103.733 109.084 106.639 106.178C109.545 103.272 109.545 98.6017 109.545 89.2503V64.4587C109.545 62.1233 109.545 60.9531 108.821 60.2242C108.092 59.5003 106.917 59.5003 104.586 59.5003H15.3362C13.0008 59.5003 11.8307 59.5003 11.1018 60.2242C10.3779 60.9531 10.3779 62.1282 10.3779 64.4587V89.2503Z" fill="white"/>
<path id="Vector_2" d="M35.1696 14.875V29.75M84.7529 14.875V29.75" stroke="white" stroke-width="2" stroke-linecap="round"/>
</g>
</g>
</svg>
