<svg width="104" height="104" viewBox="0 0 104 104" fill="none" xmlns="http://www.w3.org/2000/svg">
<g id="ph:key-fill">
<path id="Vector" d="M87.9816 16.0185C82.8193 10.849 76.0658 7.56957 68.8109 6.70947C61.556 5.84936 54.2229 7.45872 47.995 11.2778C41.767 15.097 37.0075 20.9031 34.4844 27.7592C31.9613 34.6154 31.8218 42.1217 34.0885 49.0669L11.6553 71.5C11.0491 72.1014 10.5685 72.8173 10.2414 73.6061C9.91434 74.3949 9.7473 75.2408 9.75003 76.0947V87.75C9.75003 89.4739 10.4349 91.1272 11.6538 92.3462C12.8728 93.5652 14.5261 94.25 16.25 94.25H29.25C30.112 94.25 30.9386 93.9076 31.5481 93.2981C32.1576 92.6886 32.5 91.862 32.5 91V84.5H39C39.862 84.5 40.6886 84.1576 41.2981 83.5481C41.9076 82.9386 42.25 82.112 42.25 81.25V74.75H48.75C49.177 74.7504 49.5998 74.6666 49.9943 74.5035C50.3888 74.3404 50.7474 74.1011 51.0494 73.7994L54.9332 69.9116C58.1839 70.969 61.5816 71.5051 65 71.5H65.0407C71.4653 71.4922 77.7434 69.5805 83.082 66.0063C88.4206 62.432 92.5801 57.3557 95.035 51.4186C97.4899 45.4816 98.1301 38.9501 96.8747 32.6493C95.6193 26.3486 92.5246 20.5612 87.9816 16.0185ZM73.125 37.375C71.8395 37.375 70.5827 36.9938 69.5138 36.2796C68.4449 35.5653 67.6118 34.5502 67.1198 33.3625C66.6278 32.1747 66.4991 30.8678 66.7499 29.6069C67.0007 28.3461 67.6198 27.1879 68.5288 26.2788C69.4379 25.3698 70.5961 24.7507 71.8569 24.4999C73.1178 24.2491 74.4248 24.3778 75.6125 24.8698C76.8002 25.3618 77.8154 26.1949 78.5296 27.2638C79.2438 28.3327 79.625 29.5894 79.625 30.875C79.625 32.5989 78.9402 34.2522 77.7212 35.4712C76.5022 36.6902 74.8489 37.375 73.125 37.375Z" fill="white"/>
</g>
</svg>
