<svg width="114" height="114" viewBox="0 0 114 114" fill="none" xmlns="http://www.w3.org/2000/svg">
<g id="fluent:people-team-48-filled">
<path id="Vector" d="M42.75 26.125C42.75 22.3457 44.2513 18.7211 46.9237 16.0487C49.5961 13.3763 53.2207 11.875 57 11.875C60.7793 11.875 64.4039 13.3763 67.0763 16.0487C69.7487 18.7211 71.25 22.3457 71.25 26.125C71.25 29.9043 69.7487 33.5289 67.0763 36.2013C64.4039 38.8737 60.7793 40.375 57 40.375C53.2207 40.375 49.5961 38.8737 46.9237 36.2013C44.2513 33.5289 42.75 29.9043 42.75 26.125ZM87.875 16.625C84.7256 16.625 81.7051 17.8761 79.4781 20.1031C77.2511 22.3301 76 25.3506 76 28.5C76 31.6494 77.2511 34.6699 79.4781 36.8969C81.7051 39.1239 84.7256 40.375 87.875 40.375C91.0244 40.375 94.0449 39.1239 96.2719 36.8969C98.4989 34.6699 99.75 31.6494 99.75 28.5C99.75 25.3506 98.4989 22.3301 96.2719 20.1031C94.0449 17.8761 91.0244 16.625 87.875 16.625ZM26.125 16.625C22.9756 16.625 19.9551 17.8761 17.7281 20.1031C15.5011 22.3301 14.25 25.3506 14.25 28.5C14.25 31.6494 15.5011 34.6699 17.7281 36.8969C19.9551 39.1239 22.9756 40.375 26.125 40.375C29.2744 40.375 32.2949 39.1239 34.5219 36.8969C36.7489 34.6699 38 31.6494 38 28.5C38 25.3506 36.7489 22.3301 34.5219 20.1031C32.2949 17.8761 29.2744 16.625 26.125 16.625ZM45.7188 45.125C43.0417 45.125 40.4743 46.1884 38.5814 48.0814C36.6884 49.9743 35.625 52.5417 35.625 55.2188V80.75C35.625 86.419 37.877 91.8558 41.8856 95.8644C45.8942 99.873 51.331 102.125 57 102.125C62.669 102.125 68.1058 99.873 72.1144 95.8644C76.123 91.8558 78.375 86.419 78.375 80.75V55.2188C78.375 52.5417 77.3116 49.9743 75.4186 48.0814C73.5257 46.1884 70.9583 45.125 68.2812 45.125H45.7188ZM30.875 55.2188C30.875 51.4188 32.3048 47.9489 34.656 45.3221C33.9975 45.1908 33.3277 45.1248 32.6562 45.125H19.5938C16.9167 45.125 14.3493 46.1884 12.4564 48.0814C10.5634 49.9743 9.5 52.5417 9.5 55.2188V78.375C9.49921 81.246 10.2419 84.0683 11.6559 86.5671C13.0698 89.0658 15.1067 91.1558 17.5682 92.6335C20.0298 94.1111 22.8321 94.9262 25.7022 94.9992C28.5723 95.0722 31.4124 94.4007 33.9459 93.0501C31.9233 89.2662 30.8683 85.0406 30.875 80.75V55.2188ZM83.125 80.75C83.125 85.196 82.0135 89.3831 80.0541 93.0501C82.5876 94.4007 85.4277 95.0722 88.2978 94.9992C91.1679 94.9262 93.9702 94.1111 96.4318 92.6335C98.8933 91.1558 100.93 89.0658 102.344 86.5671C103.758 84.0683 104.501 81.246 104.5 78.375V55.2188C104.5 52.5417 103.437 49.9743 101.544 48.0814C99.6507 46.1884 97.0833 45.125 94.4062 45.125H81.3438C80.6582 45.1266 79.9916 45.1923 79.344 45.3221C81.7826 48.0413 83.1294 51.5663 83.125 55.2188V80.75Z" fill="white"/>
</g>
</svg>
